<?xml version="1.0" standalone="no"?>
<!DOCTYPE svg PUBLIC "-//W3C//DTD SVG 20010904//EN"
 "http://www.w3.org/TR/2001/REC-SVG-20010904/DTD/svg10.dtd">
<svg version="1.0" xmlns="http://www.w3.org/2000/svg"
 width="50.000000pt" height="50.000000pt" viewBox="0 0 50.000000 50.000000"
 preserveAspectRatio="xMidYMid meet">
<metadata>
Created by potrace 1.15, written by Peter Selinger 2001-2017
</metadata>
<g transform="translate(0.000000,50.000000) scale(0.100000,-0.100000)"
fill="#000000" stroke="none">
<path d="M155 456 c-60 -28 -87 -56 -114 -116 -36 -79 -19 -183 42 -249 33
-36 115 -71 167 -71 52 0 134 35 167 71 34 37 63 110 63 159 0 52 -35 134 -71
167 -37 34 -110 63 -159 63 -27 0 -65 -10 -95 -24z m165 -9 c27 -9 35 -17 35
-37 0 -21 -6 -26 -31 -28 -39 -4 -83 -47 -66 -64 9 -9 7 -17 -10 -35 -12 -13
-28 -23 -36 -23 -10 0 -13 -8 -10 -25 3 -14 2 -25 -2 -25 -14 0 -30 -52 -24
-76 6 -24 31 -36 68 -31 15 1 21 -6 27 -31 6 -30 5 -32 -20 -32 -117 0 -220
110 -209 223 2 26 7 32 25 30 18 -2 22 4 28 39 4 22 10 36 14 30 9 -15 80 9
92 31 11 18 2 47 -15 48 -6 0 -2 4 9 9 28 12 84 11 125 -3z m130 -136 c16 -58
13 -69 -21 -76 -27 -6 -30 -10 -24 -36 9 -39 -13 -38 -28 1 -7 18 -19 30 -29
30 -27 0 -22 17 7 24 14 4 25 10 25 15 0 13 -32 23 -39 13 -11 -17 -51 -34
-51 -21 0 6 -7 8 -16 5 -8 -3 -12 -2 -9 4 3 6 15 10 25 10 21 0 45 34 35 50
-10 16 -28 11 -21 -6 4 -10 1 -14 -6 -12 -19 7 -16 29 5 42 13 8 20 8 27 -3 7
-12 12 -11 29 10 12 14 18 32 15 44 -9 36 65 -56 76 -94z m-128 -114 c32 1 38
-3 49 -29 11 -26 10 -35 -6 -64 -10 -19 -24 -39 -32 -45 -19 -17 -43 -3 -43
25 0 29 -31 50 -59 41 -24 -7 -44 18 -36 45 8 26 42 41 70 32 11 -4 37 -6 57
-5z"/>
</g>
</svg>
